<svg xmlns="http://www.w3.org/2000/svg" xmlns:xlink="http://www.w3.org/1999/xlink" width="600" zoomAndPan="magnify" viewBox="0 0 450 149.999998" height="200" preserveAspectRatio="xMidYMid meet" version="1.0"><defs><g/><clipPath id="95412916bd"><path d="M 151.203125 114.707031 L 298.953125 114.707031 L 298.953125 134.957031 L 151.203125 134.957031 Z M 151.203125 114.707031 " clip-rule="nonzero"/></clipPath></defs><rect x="-45" width="540" fill="#ffffff" y="-15" height="179.999997" fill-opacity="1"/><rect x="-45" width="540" fill="#ffffff" y="-15" height="179.999997" fill-opacity="1"/><rect x="-45" width="540" fill="#ffffff" y="-15" height="179.999997" fill-opacity="1"/><g fill="#152039" fill-opacity="1"><g transform="translate(126.002686, 54.468231)"><g><path d="M 25.5625 -9.90625 C 25.5625 -7.789062 25.046875 -5.953125 24.015625 -4.390625 C 22.992188 -2.828125 21.503906 -1.625 19.546875 -0.78125 C 17.585938 0.0625 15.207031 0.484375 12.40625 0.484375 C 11.164062 0.484375 9.953125 0.398438 8.765625 0.234375 C 7.585938 0.078125 6.457031 -0.15625 5.375 -0.46875 C 4.300781 -0.789062 3.273438 -1.1875 2.296875 -1.65625 L 2.296875 -8.6875 C 3.984375 -7.9375 5.738281 -7.257812 7.5625 -6.65625 C 9.382812 -6.0625 11.191406 -5.765625 12.984375 -5.765625 C 14.222656 -5.765625 15.21875 -5.925781 15.96875 -6.25 C 16.726562 -6.570312 17.28125 -7.019531 17.625 -7.59375 C 17.96875 -8.164062 18.140625 -8.816406 18.140625 -9.546875 C 18.140625 -10.441406 17.835938 -11.207031 17.234375 -11.84375 C 16.628906 -12.476562 15.800781 -13.070312 14.75 -13.625 C 13.707031 -14.175781 12.523438 -14.769531 11.203125 -15.40625 C 10.378906 -15.789062 9.476562 -16.265625 8.5 -16.828125 C 7.519531 -17.390625 6.585938 -18.078125 5.703125 -18.890625 C 4.828125 -19.710938 4.109375 -20.703125 3.546875 -21.859375 C 2.984375 -23.023438 2.703125 -24.421875 2.703125 -26.046875 C 2.703125 -28.179688 3.191406 -30.003906 4.171875 -31.515625 C 5.148438 -33.035156 6.546875 -34.195312 8.359375 -35 C 10.171875 -35.800781 12.316406 -36.203125 14.796875 -36.203125 C 16.648438 -36.203125 18.414062 -35.984375 20.09375 -35.546875 C 21.78125 -35.117188 23.546875 -34.5 25.390625 -33.6875 L 22.953125 -27.8125 C 21.304688 -28.476562 19.832031 -28.992188 18.53125 -29.359375 C 17.226562 -29.722656 15.898438 -29.90625 14.546875 -29.90625 C 13.609375 -29.90625 12.804688 -29.753906 12.140625 -29.453125 C 11.472656 -29.148438 10.96875 -28.726562 10.625 -28.1875 C 10.28125 -27.644531 10.109375 -27.015625 10.109375 -26.296875 C 10.109375 -25.453125 10.351562 -24.738281 10.84375 -24.15625 C 11.34375 -23.582031 12.09375 -23.023438 13.09375 -22.484375 C 14.09375 -21.953125 15.34375 -21.328125 16.84375 -20.609375 C 18.664062 -19.742188 20.222656 -18.84375 21.515625 -17.90625 C 22.816406 -16.96875 23.816406 -15.867188 24.515625 -14.609375 C 25.210938 -13.347656 25.5625 -11.78125 25.5625 -9.90625 Z M 25.5625 -9.90625 "/></g></g></g><g fill="#152039" fill-opacity="1"><g transform="translate(153.537444, 54.468231)"><g><path d="M 25.046875 0 L 4.5 0 L 4.5 -35.6875 L 25.046875 -35.6875 L 25.046875 -29.5 L 12.0625 -29.5 L 12.0625 -21.65625 L 24.140625 -21.65625 L 24.140625 -15.453125 L 12.0625 -15.453125 L 12.0625 -6.25 L 25.046875 -6.25 Z M 25.046875 0 "/></g></g></g><g fill="#152039" fill-opacity="1"><g transform="translate(181.535997, 54.468231)"><g><path d="M 26.34375 0 L 23.75 -8.5 L 10.75 -8.5 L 8.15625 0 L 0 0 L 12.59375 -35.84375 L 21.84375 -35.84375 L 34.5 0 Z M 21.953125 -14.84375 L 19.359375 -23.140625 C 19.191406 -23.691406 18.972656 -24.40625 18.703125 -25.28125 C 18.441406 -26.15625 18.175781 -27.039062 17.90625 -27.9375 C 17.632812 -28.84375 17.421875 -29.628906 17.265625 -30.296875 C 17.097656 -29.628906 16.867188 -28.800781 16.578125 -27.8125 C 16.296875 -26.832031 16.023438 -25.898438 15.765625 -25.015625 C 15.503906 -24.140625 15.316406 -23.515625 15.203125 -23.140625 L 12.640625 -14.84375 Z M 21.953125 -14.84375 "/></g></g></g><g fill="#152039" fill-opacity="1"><g transform="translate(216.027675, 54.468231)"><g><path d="M 25.5625 -9.90625 C 25.5625 -7.789062 25.046875 -5.953125 24.015625 -4.390625 C 22.992188 -2.828125 21.503906 -1.625 19.546875 -0.78125 C 17.585938 0.0625 15.207031 0.484375 12.40625 0.484375 C 11.164062 0.484375 9.953125 0.398438 8.765625 0.234375 C 7.585938 0.078125 6.457031 -0.15625 5.375 -0.46875 C 4.300781 -0.789062 3.273438 -1.1875 2.296875 -1.65625 L 2.296875 -8.6875 C 3.984375 -7.9375 5.738281 -7.257812 7.5625 -6.65625 C 9.382812 -6.0625 11.191406 -5.765625 12.984375 -5.765625 C 14.222656 -5.765625 15.21875 -5.925781 15.96875 -6.25 C 16.726562 -6.570312 17.28125 -7.019531 17.625 -7.59375 C 17.96875 -8.164062 18.140625 -8.816406 18.140625 -9.546875 C 18.140625 -10.441406 17.835938 -11.207031 17.234375 -11.84375 C 16.628906 -12.476562 15.800781 -13.070312 14.75 -13.625 C 13.707031 -14.175781 12.523438 -14.769531 11.203125 -15.40625 C 10.378906 -15.789062 9.476562 -16.265625 8.5 -16.828125 C 7.519531 -17.390625 6.585938 -18.078125 5.703125 -18.890625 C 4.828125 -19.710938 4.109375 -20.703125 3.546875 -21.859375 C 2.984375 -23.023438 2.703125 -24.421875 2.703125 -26.046875 C 2.703125 -28.179688 3.191406 -30.003906 4.171875 -31.515625 C 5.148438 -33.035156 6.546875 -34.195312 8.359375 -35 C 10.171875 -35.800781 12.316406 -36.203125 14.796875 -36.203125 C 16.648438 -36.203125 18.414062 -35.984375 20.09375 -35.546875 C 21.78125 -35.117188 23.546875 -34.5 25.390625 -33.6875 L 22.953125 -27.8125 C 21.304688 -28.476562 19.832031 -28.992188 18.53125 -29.359375 C 17.226562 -29.722656 15.898438 -29.90625 14.546875 -29.90625 C 13.609375 -29.90625 12.804688 -29.753906 12.140625 -29.453125 C 11.472656 -29.148438 10.96875 -28.726562 10.625 -28.1875 C 10.28125 -27.644531 10.109375 -27.015625 10.109375 -26.296875 C 10.109375 -25.453125 10.351562 -24.738281 10.84375 -24.15625 C 11.34375 -23.582031 12.09375 -23.023438 13.09375 -22.484375 C 14.09375 -21.953125 15.34375 -21.328125 16.84375 -20.609375 C 18.664062 -19.742188 20.222656 -18.84375 21.515625 -17.90625 C 22.816406 -16.96875 23.816406 -15.867188 24.515625 -14.609375 C 25.210938 -13.347656 25.5625 -11.78125 25.5625 -9.90625 Z M 25.5625 -9.90625 "/></g></g></g><g fill="#152039" fill-opacity="1"><g transform="translate(243.562434, 54.468231)"><g><path d="M 36.890625 -17.890625 C 36.890625 -15.140625 36.546875 -12.632812 35.859375 -10.375 C 35.179688 -8.125 34.144531 -6.1875 32.75 -4.5625 C 31.363281 -2.9375 29.601562 -1.6875 27.46875 -0.8125 C 25.332031 0.0507812 22.804688 0.484375 19.890625 0.484375 C 16.984375 0.484375 14.460938 0.0507812 12.328125 -0.8125 C 10.191406 -1.6875 8.425781 -2.9375 7.03125 -4.5625 C 5.644531 -6.1875 4.609375 -8.128906 3.921875 -10.390625 C 3.242188 -12.660156 2.90625 -15.175781 2.90625 -17.9375 C 2.90625 -21.632812 3.507812 -24.851562 4.71875 -27.59375 C 5.9375 -30.34375 7.804688 -32.472656 10.328125 -33.984375 C 12.847656 -35.492188 16.054688 -36.25 19.953125 -36.25 C 23.816406 -36.25 27 -35.492188 29.5 -33.984375 C 32 -32.472656 33.851562 -30.34375 35.0625 -27.59375 C 36.28125 -24.84375 36.890625 -21.609375 36.890625 -17.890625 Z M 10.84375 -17.890625 C 10.84375 -15.398438 11.15625 -13.253906 11.78125 -11.453125 C 12.40625 -9.660156 13.382812 -8.28125 14.71875 -7.3125 C 16.050781 -6.34375 17.773438 -5.859375 19.890625 -5.859375 C 22.046875 -5.859375 23.789062 -6.34375 25.125 -7.3125 C 26.457031 -8.28125 27.425781 -9.660156 28.03125 -11.453125 C 28.644531 -13.253906 28.953125 -15.398438 28.953125 -17.890625 C 28.953125 -21.640625 28.25 -24.585938 26.84375 -26.734375 C 25.445312 -28.878906 23.148438 -29.953125 19.953125 -29.953125 C 17.816406 -29.953125 16.078125 -29.46875 14.734375 -28.5 C 13.390625 -27.53125 12.40625 -26.144531 11.78125 -24.34375 C 11.15625 -22.550781 10.84375 -20.398438 10.84375 -17.890625 Z M 10.84375 -17.890625 "/></g></g></g><g fill="#152039" fill-opacity="1"><g transform="translate(283.351135, 54.468231)"><g><path d="M 36.15625 0 L 26.53125 0 L 11.015625 -27 L 10.796875 -27 C 10.859375 -25.875 10.910156 -24.742188 10.953125 -23.609375 C 11.003906 -22.472656 11.054688 -21.335938 11.109375 -20.203125 C 11.160156 -19.066406 11.207031 -17.929688 11.25 -16.796875 L 11.25 0 L 4.5 0 L 4.5 -35.6875 L 14.03125 -35.6875 L 29.546875 -8.953125 L 29.71875 -8.953125 C 29.675781 -10.066406 29.628906 -11.164062 29.578125 -12.25 C 29.535156 -13.34375 29.492188 -14.429688 29.453125 -15.515625 C 29.410156 -16.609375 29.375 -17.703125 29.34375 -18.796875 L 29.34375 -35.6875 L 36.15625 -35.6875 Z M 36.15625 0 "/></g></g></g><g fill="#152039" fill-opacity="1"><g transform="translate(190.052835, 93.020987)"><g><path d="M 16.0625 -5.671875 C 16.0625 -4.367188 15.753906 -3.269531 15.140625 -2.375 C 14.535156 -1.488281 13.628906 -0.8125 12.421875 -0.34375 C 11.210938 0.113281 9.707031 0.34375 7.90625 0.34375 C 6.570312 0.34375 5.429688 0.253906 4.484375 0.078125 C 3.535156 -0.0859375 2.578125 -0.367188 1.609375 -0.765625 L 1.609375 -5.078125 C 2.640625 -4.609375 3.75 -4.222656 4.9375 -3.921875 C 6.132812 -3.617188 7.179688 -3.46875 8.078125 -3.46875 C 9.097656 -3.46875 9.828125 -3.617188 10.265625 -3.921875 C 10.703125 -4.222656 10.921875 -4.617188 10.921875 -5.109375 C 10.921875 -5.429688 10.832031 -5.71875 10.65625 -5.96875 C 10.476562 -6.226562 10.097656 -6.519531 9.515625 -6.84375 C 8.929688 -7.164062 8.019531 -7.59375 6.78125 -8.125 C 5.582031 -8.625 4.597656 -9.128906 3.828125 -9.640625 C 3.066406 -10.148438 2.5 -10.753906 2.125 -11.453125 C 1.757812 -12.160156 1.578125 -13.054688 1.578125 -14.140625 C 1.578125 -15.898438 2.257812 -17.226562 3.625 -18.125 C 5 -19.019531 6.835938 -19.46875 9.140625 -19.46875 C 10.328125 -19.46875 11.457031 -19.347656 12.53125 -19.109375 C 13.613281 -18.867188 14.722656 -18.488281 15.859375 -17.96875 L 14.28125 -14.203125 C 13.34375 -14.609375 12.453125 -14.941406 11.609375 -15.203125 C 10.773438 -15.472656 9.925781 -15.609375 9.0625 -15.609375 C 8.289062 -15.609375 7.710938 -15.503906 7.328125 -15.296875 C 6.941406 -15.085938 6.75 -14.773438 6.75 -14.359375 C 6.75 -14.046875 6.847656 -13.769531 7.046875 -13.53125 C 7.242188 -13.289062 7.628906 -13.023438 8.203125 -12.734375 C 8.785156 -12.453125 9.632812 -12.082031 10.75 -11.625 C 11.832031 -11.175781 12.769531 -10.707031 13.5625 -10.21875 C 14.363281 -9.738281 14.976562 -9.140625 15.40625 -8.421875 C 15.84375 -7.710938 16.0625 -6.796875 16.0625 -5.671875 Z M 16.0625 -5.671875 "/></g></g></g><g fill="#152039" fill-opacity="1"><g transform="translate(207.446411, 93.020987)"><g><path d="M 10.5625 -19.5 C 13.125 -19.5 15.085938 -18.941406 16.453125 -17.828125 C 17.828125 -16.710938 18.515625 -15.015625 18.515625 -12.734375 L 18.515625 0 L 14.875 0 L 13.859375 -2.59375 L 13.71875 -2.59375 C 13.175781 -1.914062 12.617188 -1.359375 12.046875 -0.921875 C 11.472656 -0.492188 10.816406 -0.175781 10.078125 0.03125 C 9.335938 0.238281 8.441406 0.34375 7.390625 0.34375 C 6.253906 0.34375 5.238281 0.128906 4.34375 -0.296875 C 3.457031 -0.734375 2.753906 -1.398438 2.234375 -2.296875 C 1.722656 -3.191406 1.46875 -4.328125 1.46875 -5.703125 C 1.46875 -7.734375 2.179688 -9.226562 3.609375 -10.1875 C 5.035156 -11.15625 7.171875 -11.691406 10.015625 -11.796875 L 13.328125 -11.890625 L 13.328125 -12.734375 C 13.328125 -13.734375 13.066406 -14.46875 12.546875 -14.9375 C 12.023438 -15.40625 11.296875 -15.640625 10.359375 -15.640625 C 9.429688 -15.640625 8.523438 -15.503906 7.640625 -15.234375 C 6.753906 -14.972656 5.863281 -14.644531 4.96875 -14.25 L 3.25 -17.78125 C 4.257812 -18.3125 5.394531 -18.726562 6.65625 -19.03125 C 7.914062 -19.34375 9.21875 -19.5 10.5625 -19.5 Z M 13.328125 -8.859375 L 11.3125 -8.78125 C 9.625 -8.738281 8.453125 -8.4375 7.796875 -7.875 C 7.140625 -7.320312 6.8125 -6.585938 6.8125 -5.671875 C 6.8125 -4.878906 7.046875 -4.3125 7.515625 -3.96875 C 7.984375 -3.632812 8.59375 -3.46875 9.34375 -3.46875 C 10.457031 -3.46875 11.398438 -3.796875 12.171875 -4.453125 C 12.941406 -5.117188 13.328125 -6.0625 13.328125 -7.28125 Z M 13.328125 -8.859375 "/></g></g></g><g fill="#152039" fill-opacity="1"><g transform="translate(228.581828, 93.020987)"><g><path d="M 7.953125 0 L 2.734375 0 L 2.734375 -26.59375 L 7.953125 -26.59375 Z M 7.953125 0 "/></g></g></g><g fill="#152039" fill-opacity="1"><g transform="translate(239.260595, 93.020987)"><g><path d="M 10.609375 -19.46875 C 12.378906 -19.46875 13.898438 -19.128906 15.171875 -18.453125 C 16.453125 -17.773438 17.4375 -16.789062 18.125 -15.5 C 18.820312 -14.207031 19.171875 -12.632812 19.171875 -10.78125 L 19.171875 -8.25 L 6.859375 -8.25 C 6.910156 -6.78125 7.347656 -5.625 8.171875 -4.78125 C 9.003906 -3.945312 10.15625 -3.53125 11.625 -3.53125 C 12.84375 -3.53125 13.957031 -3.65625 14.96875 -3.90625 C 15.976562 -4.164062 17.019531 -4.546875 18.09375 -5.046875 L 18.09375 -1.015625 C 17.15625 -0.546875 16.171875 -0.203125 15.140625 0.015625 C 14.109375 0.234375 12.851562 0.34375 11.375 0.34375 C 9.46875 0.34375 7.773438 -0.0078125 6.296875 -0.71875 C 4.816406 -1.425781 3.660156 -2.503906 2.828125 -3.953125 C 1.992188 -5.398438 1.578125 -7.222656 1.578125 -9.421875 C 1.578125 -11.648438 1.953125 -13.507812 2.703125 -15 C 3.460938 -16.488281 4.519531 -17.601562 5.875 -18.34375 C 7.226562 -19.09375 8.804688 -19.46875 10.609375 -19.46875 Z M 10.640625 -15.75 C 9.628906 -15.75 8.789062 -15.425781 8.125 -14.78125 C 7.457031 -14.132812 7.070312 -13.113281 6.96875 -11.71875 L 14.28125 -11.71875 C 14.269531 -12.5 14.128906 -13.191406 13.859375 -13.796875 C 13.597656 -14.398438 13.203125 -14.875 12.671875 -15.21875 C 12.140625 -15.570312 11.460938 -15.75 10.640625 -15.75 Z M 10.640625 -15.75 "/></g></g></g><g clip-path="url(#95412916bd)"><path fill="#ffffff" d="M 298.820312 124.832031 C 298.820312 119.238281 294.273438 114.707031 288.664062 114.707031 L 161.492188 114.707031 C 155.886719 114.707031 151.339844 119.238281 151.339844 124.832031 C 151.339844 130.425781 155.886719 134.957031 161.492188 134.957031 L 288.664062 134.957031 C 294.273438 134.957031 298.820312 130.425781 298.820312 124.832031 Z M 298.820312 124.832031 " fill-opacity="1" fill-rule="evenodd"/></g><path fill="#152039" d="M 286.96875 127.410156 L 289.96875 129.929688 C 290.292969 130.199219 290.777344 130.160156 291.050781 129.835938 C 291.324219 129.511719 291.28125 129.03125 290.957031 128.757812 L 288.011719 126.289062 C 288.449219 125.605469 288.703125 124.796875 288.703125 123.929688 C 288.703125 121.515625 286.734375 119.554688 284.3125 119.554688 C 281.894531 119.554688 279.925781 121.515625 279.925781 123.929688 C 279.925781 126.34375 281.894531 128.304688 284.3125 128.304688 C 285.3125 128.304688 286.234375 127.972656 286.96875 127.410156 Z M 284.3125 121.085938 C 285.890625 121.085938 287.167969 122.359375 287.167969 123.929688 C 287.167969 125.5 285.890625 126.777344 284.3125 126.777344 C 282.738281 126.777344 281.460938 125.5 281.460938 123.929688 C 281.460938 122.359375 282.738281 121.085938 284.3125 121.085938 Z M 284.3125 121.085938 " fill-opacity="1" fill-rule="evenodd"/><g fill="#ff6341" fill-opacity="1"><g transform="translate(171.056104, 127.852995)"><g><path d="M 4.1875 0 L 3.40625 -2.515625 C 3.351562 -2.671875 3.257812 -3.019531 3.125 -3.5625 L 3.09375 -3.5625 C 2.988281 -3.101562 2.894531 -2.75 2.8125 -2.5 L 2.015625 0 L 1.265625 0 L 0.09375 -4.28125 L 0.765625 -4.28125 C 1.046875 -3.207031 1.257812 -2.390625 1.40625 -1.828125 C 1.550781 -1.265625 1.632812 -0.882812 1.65625 -0.6875 L 1.6875 -0.6875 C 1.707031 -0.832031 1.75 -1.023438 1.8125 -1.265625 C 1.882812 -1.503906 1.941406 -1.691406 1.984375 -1.828125 L 2.765625 -4.28125 L 3.46875 -4.28125 L 4.234375 -1.828125 C 4.378906 -1.378906 4.476562 -1.003906 4.53125 -0.703125 L 4.5625 -0.703125 C 4.570312 -0.796875 4.597656 -0.9375 4.640625 -1.125 C 4.691406 -1.320312 4.96875 -2.375 5.46875 -4.28125 L 6.140625 -4.28125 L 4.953125 0 Z M 4.1875 0 "/></g></g><g transform="translate(177.278779, 127.852995)"><g><path d="M 4.1875 0 L 3.40625 -2.515625 C 3.351562 -2.671875 3.257812 -3.019531 3.125 -3.5625 L 3.09375 -3.5625 C 2.988281 -3.101562 2.894531 -2.75 2.8125 -2.5 L 2.015625 0 L 1.265625 0 L 0.09375 -4.28125 L 0.765625 -4.28125 C 1.046875 -3.207031 1.257812 -2.390625 1.40625 -1.828125 C 1.550781 -1.265625 1.632812 -0.882812 1.65625 -0.6875 L 1.6875 -0.6875 C 1.707031 -0.832031 1.75 -1.023438 1.8125 -1.265625 C 1.882812 -1.503906 1.941406 -1.691406 1.984375 -1.828125 L 2.765625 -4.28125 L 3.46875 -4.28125 L 4.234375 -1.828125 C 4.378906 -1.378906 4.476562 -1.003906 4.53125 -0.703125 L 4.5625 -0.703125 C 4.570312 -0.796875 4.597656 -0.9375 4.640625 -1.125 C 4.691406 -1.320312 4.96875 -2.375 5.46875 -4.28125 L 6.140625 -4.28125 L 4.953125 0 Z M 4.1875 0 "/></g></g><g transform="translate(183.501454, 127.852995)"><g><path d="M 4.1875 0 L 3.40625 -2.515625 C 3.351562 -2.671875 3.257812 -3.019531 3.125 -3.5625 L 3.09375 -3.5625 C 2.988281 -3.101562 2.894531 -2.75 2.8125 -2.5 L 2.015625 0 L 1.265625 0 L 0.09375 -4.28125 L 0.765625 -4.28125 C 1.046875 -3.207031 1.257812 -2.390625 1.40625 -1.828125 C 1.550781 -1.265625 1.632812 -0.882812 1.65625 -0.6875 L 1.6875 -0.6875 C 1.707031 -0.832031 1.75 -1.023438 1.8125 -1.265625 C 1.882812 -1.503906 1.941406 -1.691406 1.984375 -1.828125 L 2.765625 -4.28125 L 3.46875 -4.28125 L 4.234375 -1.828125 C 4.378906 -1.378906 4.476562 -1.003906 4.53125 -0.703125 L 4.5625 -0.703125 C 4.570312 -0.796875 4.597656 -0.9375 4.640625 -1.125 C 4.691406 -1.320312 4.96875 -2.375 5.46875 -4.28125 L 6.140625 -4.28125 L 4.953125 0 Z M 4.1875 0 "/></g></g><g transform="translate(189.724129, 127.852995)"><g><path d="M 0.59375 -0.421875 C 0.59375 -0.585938 0.628906 -0.71875 0.703125 -0.8125 C 0.785156 -0.90625 0.90625 -0.953125 1.0625 -0.953125 C 1.207031 -0.953125 1.320312 -0.90625 1.40625 -0.8125 C 1.488281 -0.71875 1.53125 -0.585938 1.53125 -0.421875 C 1.53125 -0.242188 1.488281 -0.109375 1.40625 -0.015625 C 1.320312 0.0664062 1.207031 0.109375 1.0625 0.109375 C 0.925781 0.109375 0.8125 0.0664062 0.71875 -0.015625 C 0.632812 -0.0976562 0.59375 -0.234375 0.59375 -0.421875 Z M 0.59375 -0.421875 "/></g></g><g transform="translate(191.853041, 127.852995)"><g><path d="M 2.5 0.078125 C 1.863281 0.078125 1.363281 -0.113281 1 -0.5 C 0.632812 -0.882812 0.453125 -1.421875 0.453125 -2.109375 C 0.453125 -2.796875 0.617188 -3.34375 0.953125 -3.75 C 1.296875 -4.15625 1.753906 -4.359375 2.328125 -4.359375 C 2.867188 -4.359375 3.296875 -4.179688 3.609375 -3.828125 C 3.921875 -3.472656 4.078125 -3.007812 4.078125 -2.4375 L 4.078125 -2.03125 L 1.125 -2.03125 C 1.132812 -1.519531 1.257812 -1.132812 1.5 -0.875 C 1.738281 -0.613281 2.078125 -0.484375 2.515625 -0.484375 C 2.984375 -0.484375 3.441406 -0.582031 3.890625 -0.78125 L 3.890625 -0.203125 C 3.660156 -0.0976562 3.441406 -0.0234375 3.234375 0.015625 C 3.035156 0.0546875 2.789062 0.078125 2.5 0.078125 Z M 2.328125 -3.8125 C 1.984375 -3.8125 1.707031 -3.695312 1.5 -3.46875 C 1.289062 -3.25 1.171875 -2.941406 1.140625 -2.546875 L 3.375 -2.546875 C 3.375 -2.960938 3.28125 -3.273438 3.09375 -3.484375 C 2.914062 -3.703125 2.660156 -3.8125 2.328125 -3.8125 Z M 2.328125 -3.8125 "/></g></g><g transform="translate(196.341336, 127.852995)"><g><path d="M 2.3125 -0.46875 C 2.738281 -0.46875 3.050781 -0.582031 3.25 -0.8125 C 3.445312 -1.039062 3.550781 -1.429688 3.5625 -1.984375 L 3.5625 -2.125 C 3.5625 -2.726562 3.457031 -3.160156 3.25 -3.421875 C 3.050781 -3.679688 2.734375 -3.8125 2.296875 -3.8125 C 1.921875 -3.8125 1.628906 -3.664062 1.421875 -3.375 C 1.222656 -3.082031 1.125 -2.664062 1.125 -2.125 C 1.125 -1.582031 1.222656 -1.171875 1.421875 -0.890625 C 1.617188 -0.609375 1.914062 -0.46875 2.3125 -0.46875 Z M 2.203125 0.078125 C 1.648438 0.078125 1.21875 -0.113281 0.90625 -0.5 C 0.601562 -0.894531 0.453125 -1.4375 0.453125 -2.125 C 0.453125 -2.832031 0.609375 -3.378906 0.921875 -3.765625 C 1.234375 -4.160156 1.664062 -4.359375 2.21875 -4.359375 C 2.8125 -4.359375 3.265625 -4.140625 3.578125 -3.703125 L 3.609375 -3.703125 L 3.703125 -4.28125 L 4.21875 -4.28125 L 4.21875 1.921875 L 3.5625 1.921875 L 3.5625 0.09375 C 3.5625 -0.164062 3.578125 -0.390625 3.609375 -0.578125 L 3.5625 -0.578125 C 3.257812 -0.140625 2.804688 0.078125 2.203125 0.078125 Z M 2.203125 0.078125 "/></g></g><g transform="translate(201.243695, 127.852995)"><g><path d="M 1.296875 -4.28125 L 1.296875 -1.5 C 1.296875 -1.15625 1.375 -0.894531 1.53125 -0.71875 C 1.695312 -0.550781 1.945312 -0.46875 2.28125 -0.46875 C 2.726562 -0.46875 3.054688 -0.585938 3.265625 -0.828125 C 3.472656 -1.078125 3.578125 -1.476562 3.578125 -2.03125 L 3.578125 -4.28125 L 4.21875 -4.28125 L 4.21875 0 L 3.6875 0 L 3.59375 -0.578125 L 3.5625 -0.578125 C 3.425781 -0.367188 3.238281 -0.207031 3 -0.09375 C 2.769531 0.0195312 2.503906 0.078125 2.203125 0.078125 C 1.679688 0.078125 1.289062 -0.046875 1.03125 -0.296875 C 0.769531 -0.546875 0.640625 -0.941406 0.640625 -1.484375 L 0.640625 -4.28125 Z M 1.296875 -4.28125 "/></g></g><g transform="translate(206.153866, 127.852995)"><g><path d="M 1.34375 0 L 0.6875 0 L 0.6875 -4.28125 L 1.34375 -4.28125 Z M 0.640625 -5.4375 C 0.640625 -5.59375 0.675781 -5.703125 0.75 -5.765625 C 0.820312 -5.835938 0.910156 -5.875 1.015625 -5.875 C 1.117188 -5.875 1.207031 -5.835938 1.28125 -5.765625 C 1.363281 -5.691406 1.40625 -5.582031 1.40625 -5.4375 C 1.40625 -5.289062 1.363281 -5.179688 1.28125 -5.109375 C 1.207031 -5.046875 1.117188 -5.015625 1.015625 -5.015625 C 0.910156 -5.015625 0.820312 -5.046875 0.75 -5.109375 C 0.675781 -5.179688 0.640625 -5.289062 0.640625 -5.4375 Z M 0.640625 -5.4375 "/></g></g><g transform="translate(208.177309, 127.852995)"><g><path d="M 2.6875 0.078125 C 2.40625 0.078125 2.148438 0.0234375 1.921875 -0.078125 C 1.691406 -0.179688 1.5 -0.335938 1.34375 -0.546875 L 1.296875 -0.546875 C 1.328125 -0.296875 1.34375 -0.0625 1.34375 0.15625 L 1.34375 1.921875 L 0.6875 1.921875 L 0.6875 -4.28125 L 1.21875 -4.28125 L 1.3125 -3.703125 L 1.34375 -3.703125 C 1.507812 -3.929688 1.703125 -4.097656 1.921875 -4.203125 C 2.140625 -4.304688 2.394531 -4.359375 2.6875 -4.359375 C 3.25 -4.359375 3.679688 -4.164062 3.984375 -3.78125 C 4.296875 -3.394531 4.453125 -2.847656 4.453125 -2.140625 C 4.453125 -1.441406 4.296875 -0.894531 3.984375 -0.5 C 3.671875 -0.113281 3.238281 0.078125 2.6875 0.078125 Z M 2.59375 -3.8125 C 2.15625 -3.8125 1.835938 -3.6875 1.640625 -3.4375 C 1.441406 -3.195312 1.34375 -2.816406 1.34375 -2.296875 L 1.34375 -2.140625 C 1.34375 -1.546875 1.441406 -1.117188 1.640625 -0.859375 C 1.835938 -0.597656 2.160156 -0.46875 2.609375 -0.46875 C 2.972656 -0.46875 3.257812 -0.613281 3.46875 -0.90625 C 3.675781 -1.207031 3.78125 -1.625 3.78125 -2.15625 C 3.78125 -2.6875 3.675781 -3.09375 3.46875 -3.375 C 3.257812 -3.664062 2.96875 -3.8125 2.59375 -3.8125 Z M 2.59375 -3.8125 "/></g></g><g transform="translate(213.079668, 127.852995)"><g><path d="M 2.625 -3.78125 L 1.53125 -3.78125 L 1.53125 0 L 0.875 0 L 0.875 -3.78125 L 0.109375 -3.78125 L 0.109375 -4.078125 L 0.875 -4.3125 L 0.875 -4.546875 C 0.875 -5.597656 1.335938 -6.125 2.265625 -6.125 C 2.484375 -6.125 2.75 -6.078125 3.0625 -5.984375 L 2.890625 -5.46875 C 2.640625 -5.550781 2.425781 -5.59375 2.25 -5.59375 C 2 -5.59375 1.816406 -5.507812 1.703125 -5.34375 C 1.585938 -5.175781 1.53125 -4.914062 1.53125 -4.5625 L 1.53125 -4.28125 L 2.625 -4.28125 Z M 2.625 -3.78125 "/></g></g><g transform="translate(215.790614, 127.852995)"><g><path d="M 4.390625 -2.140625 C 4.390625 -1.441406 4.210938 -0.894531 3.859375 -0.5 C 3.503906 -0.113281 3.019531 0.078125 2.40625 0.078125 C 2.019531 0.078125 1.675781 -0.0078125 1.375 -0.1875 C 1.082031 -0.375 0.851562 -0.632812 0.6875 -0.96875 C 0.53125 -1.300781 0.453125 -1.691406 0.453125 -2.140625 C 0.453125 -2.835938 0.625 -3.378906 0.96875 -3.765625 C 1.320312 -4.160156 1.804688 -4.359375 2.421875 -4.359375 C 3.023438 -4.359375 3.503906 -4.160156 3.859375 -3.765625 C 4.210938 -3.367188 4.390625 -2.828125 4.390625 -2.140625 Z M 1.125 -2.140625 C 1.125 -1.597656 1.234375 -1.179688 1.453125 -0.890625 C 1.671875 -0.609375 1.992188 -0.46875 2.421875 -0.46875 C 2.835938 -0.46875 3.15625 -0.609375 3.375 -0.890625 C 3.601562 -1.179688 3.71875 -1.597656 3.71875 -2.140625 C 3.71875 -2.691406 3.601562 -3.109375 3.375 -3.390625 C 3.15625 -3.671875 2.832031 -3.8125 2.40625 -3.8125 C 1.976562 -3.8125 1.65625 -3.671875 1.4375 -3.390625 C 1.226562 -3.109375 1.125 -2.691406 1.125 -2.140625 Z M 1.125 -2.140625 "/></g></g><g transform="translate(220.622659, 127.852995)"><g><path d="M 4.390625 -2.140625 C 4.390625 -1.441406 4.210938 -0.894531 3.859375 -0.5 C 3.503906 -0.113281 3.019531 0.078125 2.40625 0.078125 C 2.019531 0.078125 1.675781 -0.0078125 1.375 -0.1875 C 1.082031 -0.375 0.851562 -0.632812 0.6875 -0.96875 C 0.53125 -1.300781 0.453125 -1.691406 0.453125 -2.140625 C 0.453125 -2.835938 0.625 -3.378906 0.96875 -3.765625 C 1.320312 -4.160156 1.804688 -4.359375 2.421875 -4.359375 C 3.023438 -4.359375 3.503906 -4.160156 3.859375 -3.765625 C 4.210938 -3.367188 4.390625 -2.828125 4.390625 -2.140625 Z M 1.125 -2.140625 C 1.125 -1.597656 1.234375 -1.179688 1.453125 -0.890625 C 1.671875 -0.609375 1.992188 -0.46875 2.421875 -0.46875 C 2.835938 -0.46875 3.15625 -0.609375 3.375 -0.890625 C 3.601562 -1.179688 3.71875 -1.597656 3.71875 -2.140625 C 3.71875 -2.691406 3.601562 -3.109375 3.375 -3.390625 C 3.15625 -3.671875 2.832031 -3.8125 2.40625 -3.8125 C 1.976562 -3.8125 1.65625 -3.671875 1.4375 -3.390625 C 1.226562 -3.109375 1.125 -2.691406 1.125 -2.140625 Z M 1.125 -2.140625 "/></g></g><g transform="translate(225.454705, 127.852995)"><g><path d="M 2.078125 -0.453125 C 2.191406 -0.453125 2.300781 -0.460938 2.40625 -0.484375 C 2.507812 -0.503906 2.59375 -0.519531 2.65625 -0.53125 L 2.65625 -0.046875 C 2.582031 -0.00390625 2.476562 0.0234375 2.34375 0.046875 C 2.207031 0.0664062 2.085938 0.078125 1.984375 0.078125 C 1.148438 0.078125 0.734375 -0.359375 0.734375 -1.234375 L 0.734375 -3.78125 L 0.125 -3.78125 L 0.125 -4.09375 L 0.734375 -4.359375 L 1.015625 -5.28125 L 1.390625 -5.28125 L 1.390625 -4.28125 L 2.625 -4.28125 L 2.625 -3.78125 L 1.390625 -3.78125 L 1.390625 -1.265625 C 1.390625 -1.003906 1.445312 -0.800781 1.5625 -0.65625 C 1.6875 -0.519531 1.859375 -0.453125 2.078125 -0.453125 Z M 2.078125 -0.453125 "/></g></g><g transform="translate(228.278932, 127.852995)"><g><path d="M 4.1875 0 L 3.40625 -2.515625 C 3.351562 -2.671875 3.257812 -3.019531 3.125 -3.5625 L 3.09375 -3.5625 C 2.988281 -3.101562 2.894531 -2.75 2.8125 -2.5 L 2.015625 0 L 1.265625 0 L 0.09375 -4.28125 L 0.765625 -4.28125 C 1.046875 -3.207031 1.257812 -2.390625 1.40625 -1.828125 C 1.550781 -1.265625 1.632812 -0.882812 1.65625 -0.6875 L 1.6875 -0.6875 C 1.707031 -0.832031 1.75 -1.023438 1.8125 -1.265625 C 1.882812 -1.503906 1.941406 -1.691406 1.984375 -1.828125 L 2.765625 -4.28125 L 3.46875 -4.28125 L 4.234375 -1.828125 C 4.378906 -1.378906 4.476562 -1.003906 4.53125 -0.703125 L 4.5625 -0.703125 C 4.570312 -0.796875 4.597656 -0.9375 4.640625 -1.125 C 4.691406 -1.320312 4.96875 -2.375 5.46875 -4.28125 L 6.140625 -4.28125 L 4.953125 0 Z M 4.1875 0 "/></g></g><g transform="translate(234.501607, 127.852995)"><g><path d="M 2.5 0.078125 C 1.863281 0.078125 1.363281 -0.113281 1 -0.5 C 0.632812 -0.882812 0.453125 -1.421875 0.453125 -2.109375 C 0.453125 -2.796875 0.617188 -3.34375 0.953125 -3.75 C 1.296875 -4.15625 1.753906 -4.359375 2.328125 -4.359375 C 2.867188 -4.359375 3.296875 -4.179688 3.609375 -3.828125 C 3.921875 -3.472656 4.078125 -3.007812 4.078125 -2.4375 L 4.078125 -2.03125 L 1.125 -2.03125 C 1.132812 -1.519531 1.257812 -1.132812 1.5 -0.875 C 1.738281 -0.613281 2.078125 -0.484375 2.515625 -0.484375 C 2.984375 -0.484375 3.441406 -0.582031 3.890625 -0.78125 L 3.890625 -0.203125 C 3.660156 -0.0976562 3.441406 -0.0234375 3.234375 0.015625 C 3.035156 0.0546875 2.789062 0.078125 2.5 0.078125 Z M 2.328125 -3.8125 C 1.984375 -3.8125 1.707031 -3.695312 1.5 -3.46875 C 1.289062 -3.25 1.171875 -2.941406 1.140625 -2.546875 L 3.375 -2.546875 C 3.375 -2.960938 3.28125 -3.273438 3.09375 -3.484375 C 2.914062 -3.703125 2.660156 -3.8125 2.328125 -3.8125 Z M 2.328125 -3.8125 "/></g></g><g transform="translate(238.989902, 127.852995)"><g><path d="M 3.328125 0 L 3.1875 -0.609375 L 3.15625 -0.609375 C 2.945312 -0.335938 2.734375 -0.15625 2.515625 -0.0625 C 2.304688 0.03125 2.046875 0.078125 1.734375 0.078125 C 1.304688 0.078125 0.972656 -0.03125 0.734375 -0.25 C 0.492188 -0.46875 0.375 -0.78125 0.375 -1.1875 C 0.375 -2.050781 1.0625 -2.503906 2.4375 -2.546875 L 3.171875 -2.5625 L 3.171875 -2.828125 C 3.171875 -3.171875 3.097656 -3.421875 2.953125 -3.578125 C 2.804688 -3.734375 2.578125 -3.8125 2.265625 -3.8125 C 1.898438 -3.8125 1.492188 -3.703125 1.046875 -3.484375 L 0.84375 -3.984375 C 1.0625 -4.097656 1.296875 -4.1875 1.546875 -4.25 C 1.796875 -4.320312 2.046875 -4.359375 2.296875 -4.359375 C 2.804688 -4.359375 3.179688 -4.242188 3.421875 -4.015625 C 3.671875 -3.785156 3.796875 -3.421875 3.796875 -2.921875 L 3.796875 0 Z M 1.859375 -0.453125 C 2.265625 -0.453125 2.582031 -0.5625 2.8125 -0.78125 C 3.039062 -1.007812 3.15625 -1.320312 3.15625 -1.71875 L 3.15625 -2.109375 L 2.5 -2.078125 C 1.988281 -2.054688 1.617188 -1.972656 1.390625 -1.828125 C 1.160156 -1.691406 1.046875 -1.472656 1.046875 -1.171875 C 1.046875 -0.941406 1.113281 -0.765625 1.25 -0.640625 C 1.394531 -0.515625 1.597656 -0.453125 1.859375 -0.453125 Z M 1.859375 -0.453125 "/></g></g><g transform="translate(243.439134, 127.852995)"><g><path d="M 2.640625 -4.359375 C 2.828125 -4.359375 3 -4.34375 3.15625 -4.3125 L 3.0625 -3.71875 C 2.882812 -3.75 2.726562 -3.765625 2.59375 -3.765625 C 2.25 -3.765625 1.953125 -3.625 1.703125 -3.34375 C 1.460938 -3.0625 1.34375 -2.710938 1.34375 -2.296875 L 1.34375 0 L 0.6875 0 L 0.6875 -4.28125 L 1.21875 -4.28125 L 1.296875 -3.484375 L 1.328125 -3.484375 C 1.484375 -3.765625 1.671875 -3.976562 1.890625 -4.125 C 2.117188 -4.28125 2.367188 -4.359375 2.640625 -4.359375 Z M 2.640625 -4.359375 "/></g></g><g transform="translate(246.704769, 127.852995)"><g><path d="M 0.59375 -0.421875 C 0.59375 -0.585938 0.628906 -0.71875 0.703125 -0.8125 C 0.785156 -0.90625 0.90625 -0.953125 1.0625 -0.953125 C 1.207031 -0.953125 1.320312 -0.90625 1.40625 -0.8125 C 1.488281 -0.71875 1.53125 -0.585938 1.53125 -0.421875 C 1.53125 -0.242188 1.488281 -0.109375 1.40625 -0.015625 C 1.320312 0.0664062 1.207031 0.109375 1.0625 0.109375 C 0.925781 0.109375 0.8125 0.0664062 0.71875 -0.015625 C 0.632812 -0.0976562 0.59375 -0.234375 0.59375 -0.421875 Z M 0.59375 -0.421875 "/></g></g><g transform="translate(248.833682, 127.852995)"><g><path d="M 2.40625 0.078125 C 1.78125 0.078125 1.296875 -0.109375 0.953125 -0.484375 C 0.617188 -0.867188 0.453125 -1.410156 0.453125 -2.109375 C 0.453125 -2.828125 0.625 -3.378906 0.96875 -3.765625 C 1.3125 -4.160156 1.800781 -4.359375 2.4375 -4.359375 C 2.644531 -4.359375 2.851562 -4.335938 3.0625 -4.296875 C 3.269531 -4.253906 3.429688 -4.203125 3.546875 -4.140625 L 3.34375 -3.59375 C 3.195312 -3.644531 3.039062 -3.6875 2.875 -3.71875 C 2.707031 -3.757812 2.554688 -3.78125 2.421875 -3.78125 C 1.554688 -3.78125 1.125 -3.226562 1.125 -2.125 C 1.125 -1.59375 1.226562 -1.1875 1.4375 -0.90625 C 1.65625 -0.625 1.972656 -0.484375 2.390625 -0.484375 C 2.742188 -0.484375 3.109375 -0.5625 3.484375 -0.71875 L 3.484375 -0.140625 C 3.191406 0.00390625 2.832031 0.078125 2.40625 0.078125 Z M 2.40625 0.078125 "/></g></g><g transform="translate(252.642287, 127.852995)"><g><path d="M 4.390625 -2.140625 C 4.390625 -1.441406 4.210938 -0.894531 3.859375 -0.5 C 3.503906 -0.113281 3.019531 0.078125 2.40625 0.078125 C 2.019531 0.078125 1.675781 -0.0078125 1.375 -0.1875 C 1.082031 -0.375 0.851562 -0.632812 0.6875 -0.96875 C 0.53125 -1.300781 0.453125 -1.691406 0.453125 -2.140625 C 0.453125 -2.835938 0.625 -3.378906 0.96875 -3.765625 C 1.320312 -4.160156 1.804688 -4.359375 2.421875 -4.359375 C 3.023438 -4.359375 3.503906 -4.160156 3.859375 -3.765625 C 4.210938 -3.367188 4.390625 -2.828125 4.390625 -2.140625 Z M 1.125 -2.140625 C 1.125 -1.597656 1.234375 -1.179688 1.453125 -0.890625 C 1.671875 -0.609375 1.992188 -0.46875 2.421875 -0.46875 C 2.835938 -0.46875 3.15625 -0.609375 3.375 -0.890625 C 3.601562 -1.179688 3.71875 -1.597656 3.71875 -2.140625 C 3.71875 -2.691406 3.601562 -3.109375 3.375 -3.390625 C 3.15625 -3.671875 2.832031 -3.8125 2.40625 -3.8125 C 1.976562 -3.8125 1.65625 -3.671875 1.4375 -3.390625 C 1.226562 -3.109375 1.125 -2.691406 1.125 -2.140625 Z M 1.125 -2.140625 "/></g></g><g transform="translate(257.474333, 127.852995)"><g><path d="M 6.140625 0 L 6.140625 -2.78125 C 6.140625 -3.125 6.066406 -3.378906 5.921875 -3.546875 C 5.773438 -3.722656 5.550781 -3.8125 5.25 -3.8125 C 4.84375 -3.8125 4.539062 -3.691406 4.34375 -3.453125 C 4.15625 -3.222656 4.0625 -2.867188 4.0625 -2.390625 L 4.0625 0 L 3.421875 0 L 3.421875 -2.78125 C 3.421875 -3.125 3.347656 -3.378906 3.203125 -3.546875 C 3.054688 -3.722656 2.828125 -3.8125 2.515625 -3.8125 C 2.109375 -3.8125 1.8125 -3.6875 1.625 -3.4375 C 1.4375 -3.195312 1.34375 -2.800781 1.34375 -2.25 L 1.34375 0 L 0.6875 0 L 0.6875 -4.28125 L 1.21875 -4.28125 L 1.328125 -3.703125 L 1.359375 -3.703125 C 1.472656 -3.910156 1.640625 -4.070312 1.859375 -4.1875 C 2.085938 -4.300781 2.34375 -4.359375 2.625 -4.359375 C 3.289062 -4.359375 3.726562 -4.117188 3.9375 -3.640625 L 3.96875 -3.640625 C 4.09375 -3.859375 4.273438 -4.03125 4.515625 -4.15625 C 4.753906 -4.289062 5.03125 -4.359375 5.34375 -4.359375 C 5.832031 -4.359375 6.195312 -4.234375 6.4375 -3.984375 C 6.675781 -3.734375 6.796875 -3.335938 6.796875 -2.796875 L 6.796875 0 Z M 6.140625 0 "/></g></g></g><g fill="#152039" fill-opacity="1"><g transform="translate(192.679298, 112.126006)"><g><path d="M 6.015625 -2.28125 C 6.015625 -1.53125 5.738281 -0.941406 5.1875 -0.515625 C 4.644531 -0.0859375 3.90625 0.125 2.96875 0.125 C 1.945312 0.125 1.164062 -0.0078125 0.625 -0.28125 L 0.625 -1.234375 C 0.976562 -1.085938 1.359375 -0.96875 1.765625 -0.875 C 2.179688 -0.789062 2.59375 -0.75 3 -0.75 C 3.664062 -0.75 4.164062 -0.875 4.5 -1.125 C 4.832031 -1.382812 5 -1.738281 5 -2.1875 C 5 -2.476562 4.9375 -2.71875 4.8125 -2.90625 C 4.695312 -3.101562 4.5 -3.28125 4.21875 -3.4375 C 3.945312 -3.601562 3.523438 -3.785156 2.953125 -3.984375 C 2.160156 -4.265625 1.59375 -4.597656 1.25 -4.984375 C 0.90625 -5.378906 0.734375 -5.894531 0.734375 -6.53125 C 0.734375 -7.1875 0.976562 -7.707031 1.46875 -8.09375 C 1.96875 -8.488281 2.628906 -8.6875 3.453125 -8.6875 C 4.296875 -8.6875 5.078125 -8.53125 5.796875 -8.21875 L 5.484375 -7.359375 C 4.773438 -7.648438 4.085938 -7.796875 3.421875 -7.796875 C 2.890625 -7.796875 2.472656 -7.679688 2.171875 -7.453125 C 1.878906 -7.234375 1.734375 -6.921875 1.734375 -6.515625 C 1.734375 -6.222656 1.785156 -5.976562 1.890625 -5.78125 C 2.003906 -5.59375 2.191406 -5.421875 2.453125 -5.265625 C 2.710938 -5.109375 3.113281 -4.929688 3.65625 -4.734375 C 4.550781 -4.421875 5.164062 -4.078125 5.5 -3.703125 C 5.84375 -3.335938 6.015625 -2.863281 6.015625 -2.28125 Z M 6.015625 -2.28125 "/></g></g><g transform="translate(199.265235, 112.126006)"><g><path d="M 7.6875 0 L 6.6875 0 L 6.6875 -4.03125 L 2.171875 -4.03125 L 2.171875 0 L 1.171875 0 L 1.171875 -8.5625 L 2.171875 -8.5625 L 2.171875 -4.921875 L 6.6875 -4.921875 L 6.6875 -8.5625 L 7.6875 -8.5625 Z M 7.6875 0 "/></g></g><g transform="translate(208.11875, 112.126006)"><g><path d="M 8.609375 -4.296875 C 8.609375 -2.921875 8.257812 -1.835938 7.5625 -1.046875 C 6.875 -0.265625 5.914062 0.125 4.6875 0.125 C 3.425781 0.125 2.453125 -0.257812 1.765625 -1.03125 C 1.078125 -1.8125 0.734375 -2.90625 0.734375 -4.3125 C 0.734375 -5.707031 1.078125 -6.785156 1.765625 -7.546875 C 2.453125 -8.316406 3.425781 -8.703125 4.6875 -8.703125 C 5.925781 -8.703125 6.890625 -8.3125 7.578125 -7.53125 C 8.265625 -6.75 8.609375 -5.671875 8.609375 -4.296875 Z M 1.78125 -4.296875 C 1.78125 -3.140625 2.023438 -2.257812 2.515625 -1.65625 C 3.015625 -1.050781 3.738281 -0.75 4.6875 -0.75 C 5.632812 -0.75 6.347656 -1.046875 6.828125 -1.640625 C 7.316406 -2.242188 7.5625 -3.128906 7.5625 -4.296875 C 7.5625 -5.453125 7.316406 -6.328125 6.828125 -6.921875 C 6.347656 -7.515625 5.632812 -7.8125 4.6875 -7.8125 C 3.738281 -7.8125 3.015625 -7.507812 2.515625 -6.90625 C 2.023438 -6.3125 1.78125 -5.441406 1.78125 -4.296875 Z M 1.78125 -4.296875 "/></g></g><g transform="translate(217.464453, 112.126006)"><g><path d="M 6.609375 -6.078125 C 6.609375 -5.203125 6.3125 -4.53125 5.71875 -4.0625 C 5.125 -3.601562 4.28125 -3.375 3.1875 -3.375 L 2.171875 -3.375 L 2.171875 0 L 1.171875 0 L 1.171875 -8.5625 L 3.40625 -8.5625 C 5.539062 -8.5625 6.609375 -7.734375 6.609375 -6.078125 Z M 2.171875 -4.21875 L 3.078125 -4.21875 C 3.953125 -4.21875 4.585938 -4.359375 4.984375 -4.640625 C 5.378906 -4.929688 5.578125 -5.394531 5.578125 -6.03125 C 5.578125 -6.59375 5.390625 -7.007812 5.015625 -7.28125 C 4.648438 -7.5625 4.070312 -7.703125 3.28125 -7.703125 L 2.171875 -7.703125 Z M 2.171875 -4.21875 "/></g></g><g transform="translate(224.689062, 112.126006)"><g/></g><g transform="translate(227.806249, 112.126006)"><g><path d="M 7.875 0 L 6.734375 0 L 2.046875 -7.1875 L 2 -7.1875 C 2.0625 -6.34375 2.09375 -5.570312 2.09375 -4.875 L 2.09375 0 L 1.171875 0 L 1.171875 -8.5625 L 2.296875 -8.5625 L 6.96875 -1.40625 L 7.015625 -1.40625 C 7.015625 -1.507812 7 -1.847656 6.96875 -2.421875 C 6.9375 -2.992188 6.925781 -3.40625 6.9375 -3.65625 L 6.9375 -8.5625 L 7.875 -8.5625 Z M 7.875 0 "/></g></g><g transform="translate(236.853124, 112.126006)"><g><path d="M 8.609375 -4.296875 C 8.609375 -2.921875 8.257812 -1.835938 7.5625 -1.046875 C 6.875 -0.265625 5.914062 0.125 4.6875 0.125 C 3.425781 0.125 2.453125 -0.257812 1.765625 -1.03125 C 1.078125 -1.8125 0.734375 -2.90625 0.734375 -4.3125 C 0.734375 -5.707031 1.078125 -6.785156 1.765625 -7.546875 C 2.453125 -8.316406 3.425781 -8.703125 4.6875 -8.703125 C 5.925781 -8.703125 6.890625 -8.3125 7.578125 -7.53125 C 8.265625 -6.75 8.609375 -5.671875 8.609375 -4.296875 Z M 1.78125 -4.296875 C 1.78125 -3.140625 2.023438 -2.257812 2.515625 -1.65625 C 3.015625 -1.050781 3.738281 -0.75 4.6875 -0.75 C 5.632812 -0.75 6.347656 -1.046875 6.828125 -1.640625 C 7.316406 -2.242188 7.5625 -3.128906 7.5625 -4.296875 C 7.5625 -5.453125 7.316406 -6.328125 6.828125 -6.921875 C 6.347656 -7.515625 5.632812 -7.8125 4.6875 -7.8125 C 3.738281 -7.8125 3.015625 -7.507812 2.515625 -6.90625 C 2.023438 -6.3125 1.78125 -5.441406 1.78125 -4.296875 Z M 1.78125 -4.296875 "/></g></g><g transform="translate(246.198826, 112.126006)"><g><path d="M 8.65625 0 L 7.671875 0 L 5.9375 -5.734375 C 5.851562 -5.992188 5.757812 -6.316406 5.65625 -6.703125 C 5.5625 -7.085938 5.515625 -7.316406 5.515625 -7.390625 C 5.421875 -6.878906 5.28125 -6.316406 5.09375 -5.703125 L 3.421875 0 L 2.4375 0 L 0.15625 -8.5625 L 1.21875 -8.5625 L 2.5625 -3.28125 C 2.75 -2.53125 2.890625 -1.859375 2.984375 -1.265625 C 3.085938 -1.972656 3.242188 -2.671875 3.453125 -3.359375 L 4.984375 -8.5625 L 6.03125 -8.5625 L 7.640625 -3.3125 C 7.828125 -2.707031 7.988281 -2.023438 8.125 -1.265625 C 8.195312 -1.816406 8.335938 -2.488281 8.546875 -3.28125 L 9.890625 -8.5625 L 10.953125 -8.5625 Z M 8.65625 0 "/></g></g></g></svg>